<svg xmlns="http://www.w3.org/2000/svg" width="420" height="760" viewBox="0 0 420 760" role="img" aria-labelledby="title desc"><title id="title">Delivery critical path</title><desc id="desc">Discovery, mesh, identity, and pilot onboarding lead to parallel integration, security, and operational readiness gates before the production pilot.</desc><defs><marker id="a" markerWidth="8" markerHeight="8" refX="7" refY="4" orient="auto"><path d="M0 0L8 4 0 8Z" fill="#49647a"/></marker></defs><rect width="420" height="760" rx="12" fill="#fff"/><g font-family="Arial,sans-serif" fill="#18364b" text-anchor="middle"><text x="210" y="30" font-size="18" font-weight="700">Delivery critical path</text><rect x="45" y="52" width="330" height="56" rx="9" fill="#edf5fb" stroke="#8aaac2"/><text x="210" y="86" font-size="15">Service discovery foundation</text><path d="M210 108v20" stroke="#49647a" stroke-width="2" marker-end="url(#a)"/><rect x="45" y="135" width="330" height="56" rx="9" fill="#edf5fb" stroke="#8aaac2"/><text x="210" y="169" font-size="15">Service mesh platform</text><path d="M210 191v20" stroke="#49647a" stroke-width="2" marker-end="url(#a)"/><rect x="45" y="218" width="330" height="56" rx="9" fill="#edf5fb" stroke="#8aaac2"/><text x="210" y="252" font-size="15">Service identity and mTLS</text><path d="M210 274v20" stroke="#49647a" stroke-width="2" marker-end="url(#a)"/><rect x="45" y="301" width="330" height="56" rx="9" fill="#e8f7f1" stroke="#72aa93"/><text x="210" y="335" font-size="15">Pilot application onboarding</text><path d="M210 357v28H77v30" fill="none" stroke="#49647a" stroke-width="2" marker-end="url(#a)"/><path d="M210 357v58" stroke="#49647a" stroke-width="2" marker-end="url(#a)"/><path d="M210 385h133v30" fill="none" stroke="#49647a" stroke-width="2" marker-end="url(#a)"/><rect x="15" y="422" width="125" height="92" rx="9" fill="#fff5df" stroke="#c8a85a"/><text x="77" y="452" font-size="13" font-weight="700">Integration and</text><text x="77" y="473" font-size="13" font-weight="700">resilience</text><text x="77" y="495" font-size="12">Evidence gate</text><rect x="148" y="422" width="125" height="92" rx="9" fill="#fff5df" stroke="#c8a85a"/><text x="210" y="452" font-size="13" font-weight="700">Security</text><text x="210" y="473" font-size="13" font-weight="700">approval</text><text x="210" y="495" font-size="12">Evidence gate</text><rect x="281" y="422" width="125" height="92" rx="9" fill="#fff5df" stroke="#c8a85a"/><text x="343" y="452" font-size="13" font-weight="700">Operational</text><text x="343" y="473" font-size="13" font-weight="700">readiness</text><text x="343" y="495" font-size="12">Evidence gate</text><path d="M77 514v43h133" fill="none" stroke="#49647a" stroke-width="2"/><path d="M210 514v43" stroke="#49647a" stroke-width="2"/><path d="M343 514v43H210v32" fill="none" stroke="#49647a" stroke-width="2" marker-end="url(#a)"/><rect x="45" y="596" width="330" height="58" rx="9" fill="#f2edfb" stroke="#9982bd"/><text x="210" y="631" font-size="16" font-weight="700">Go / No-Go</text><path d="M210 654v25" stroke="#49647a" stroke-width="2" marker-end="url(#a)"/><rect x="45" y="686" width="330" height="52" rx="9" fill="#e8f7f1" stroke="#72aa93"/><text x="210" y="718" font-size="16">Controlled production pilot</text></g></svg>
